<svg width="1200" height="630" viewBox="0 0 1200 630" fill="none" xmlns="http://www.w3.org/2000/svg">
  <defs>
    <filter id="shadow" x="-20%" y="-20%" width="140%" height="160%">
      <feDropShadow dx="0" dy="22" stdDeviation="24" flood-color="#080906" flood-opacity="0.28"/>
    </filter>
    <radialGradient id="glow" cx="0" cy="0" r="1" gradientUnits="userSpaceOnUse" gradientTransform="translate(793 235) rotate(133) scale(495 590)">
      <stop stop-color="#DFF568" stop-opacity="0.23"/>
      <stop offset="1" stop-color="#171815" stop-opacity="0"/>
    </radialGradient>
  </defs>

  <rect width="1200" height="630" rx="0" fill="#171815"/>
  <rect width="1200" height="630" fill="url(#glow)"/>
  <circle cx="1104" cy="80" r="6" fill="#DFF568"/>
  <path d="M1130 80H1160" stroke="#F5F3EE" stroke-opacity="0.22" stroke-width="2"/>

  <g font-family="Arial, Helvetica, sans-serif">
    <text x="68" y="82" fill="#F5F3EE" font-size="28" font-weight="700" letter-spacing="4">QUOTE</text>
    <text x="68" y="190" fill="#F5F3EE" font-size="52" font-weight="600" letter-spacing="-2.4">
      <tspan x="68" dy="0">Professional</tspan>
      <tspan x="68" dy="58">quotes.</tspan>
      <tspan x="68" dy="58">In seconds.</tspan>
    </text>
    <text x="70" y="390" fill="#F5F3EE" fill-opacity="0.55" font-size="18" font-weight="400">
      <tspan x="70" dy="0">No signup. No subscription.</tspan>
      <tspan x="70" dy="28">Your data stays in your browser.</tspan>
    </text>
  </g>

  <g transform="translate(68 490)">
    <rect width="244" height="56" rx="28" fill="#DFF568"/>
    <text x="25" y="35" fill="#171815" font-family="Arial, Helvetica, sans-serif" font-size="16" font-weight="700">Create. Export. Send.</text>
    <path d="M207 28H221M216 23L221 28L216 33" stroke="#171815" stroke-width="2" stroke-linecap="round" stroke-linejoin="round"/>
  </g>

  <g filter="url(#shadow)">
    <rect x="520" y="92" width="624" height="474" rx="22" fill="#252622"/>
    <circle cx="545" cy="116" r="5" fill="#F5F3EE" fill-opacity="0.25"/>
    <circle cx="562" cy="116" r="5" fill="#F5F3EE" fill-opacity="0.25"/>
    <circle cx="579" cy="116" r="5" fill="#F5F3EE" fill-opacity="0.25"/>
    <text x="829" y="120" fill="#F5F3EE" fill-opacity="0.36" text-anchor="middle" font-family="monospace" font-size="9">quote.emirulucay.com/app</text>

    <path d="M520 140H1144V544C1144 556.15 1134.15 566 1122 566H542C529.85 566 520 556.15 520 544V140Z" fill="#EBE9E3"/>
    <path d="M520 140H766V566H542C529.85 566 520 556.15 520 544V140Z" fill="#FBFAF7"/>
    <path d="M766 140V566" stroke="#171815" stroke-opacity="0.1"/>

    <g transform="translate(542 162)" font-family="Arial, Helvetica, sans-serif">
      <text x="0" y="12" fill="#171815" font-size="11" font-weight="700" letter-spacing="1.5">QUOTE</text>
      <rect x="154" y="0" width="28" height="18" rx="9" fill="white" stroke="#171815" stroke-opacity="0.1"/>
      <text x="168" y="12" fill="#171815" font-size="6" text-anchor="middle">EN</text>
      <rect x="188" y="0" width="34" height="18" rx="9" fill="white" stroke="#171815" stroke-opacity="0.1"/>
      <text x="205" y="12" fill="#171815" font-size="6" text-anchor="middle">EUR</text>
      <path d="M0 34H202" stroke="#171815" stroke-opacity="0.08"/>

      <rect x="0" y="48" width="222" height="30" rx="8" fill="white" stroke="#171815" stroke-opacity="0.09"/>
      <text x="12" y="67" fill="#171815" font-size="8" font-weight="600">Emir Uluçay</text>
      <circle cx="10" cy="104" r="10" fill="#DFF568"/>
      <text x="10" y="107" fill="#171815" font-family="monospace" font-size="6" font-weight="700" text-anchor="middle">01</text>
      <text x="28" y="108" fill="#171815" font-size="9" font-weight="700">Invoice details</text>

      <text x="0" y="132" fill="#171815" fill-opacity="0.38" font-size="6">Client name</text>
      <rect x="0" y="140" width="222" height="32" rx="8" fill="white" stroke="#171815" stroke-opacity="0.09"/>
      <text x="12" y="160" fill="#171815" font-size="8" font-weight="600">Recete Studio</text>
      <rect x="0" y="180" width="106" height="32" rx="8" fill="white" stroke="#171815" stroke-opacity="0.09"/>
      <rect x="116" y="180" width="106" height="32" rx="8" fill="white" stroke="#171815" stroke-opacity="0.09"/>
      <text x="10" y="200" fill="#171815" font-size="7">24.08.2026</text>
      <text x="126" y="200" fill="#171815" font-size="7">VAT · 20%</text>

      <circle cx="10" cy="238" r="10" fill="#DFF568"/>
      <text x="10" y="241" fill="#171815" font-family="monospace" font-size="6" font-weight="700" text-anchor="middle">02</text>
      <text x="28" y="242" fill="#171815" font-size="9" font-weight="700">Services</text>
      <rect x="0" y="256" width="222" height="52" rx="9" fill="white" stroke="#171815" stroke-opacity="0.09"/>
      <rect x="8" y="264" width="124" height="27" rx="6" fill="#F5F3EE"/>
      <rect x="138" y="264" width="28" height="27" rx="6" fill="#F5F3EE"/>
      <rect x="172" y="264" width="42" height="27" rx="6" fill="#F5F3EE"/>
      <text x="16" y="281" fill="#171815" font-size="6.5" font-weight="600">Product strategy &amp; UX</text>
      <text x="152" y="281" fill="#171815" font-size="6.5" text-anchor="middle">1</text>
      <text x="193" y="281" fill="#171815" font-size="6.5" text-anchor="middle">€1,800</text>
      <text x="8" y="301" fill="#171815" fill-opacity="0.35" font-size="5.5">+ Add a description</text>
      <rect x="0" y="318" width="222" height="30" rx="8" fill="none" stroke="#171815" stroke-opacity="0.12" stroke-dasharray="3 3"/>
      <text x="111" y="337" fill="#171815" font-size="6.5" font-weight="600" text-anchor="middle">+ Add service</text>

      <rect x="0" y="366" width="222" height="36" rx="18" fill="#171815"/>
      <text x="111" y="388" fill="white" font-size="7.5" font-weight="700" text-anchor="middle">Download PDF · A4</text>
    </g>

    <g transform="translate(804 164)" font-family="Arial, Helvetica, sans-serif">
      <rect width="302" height="378" fill="white"/>
      <text x="151" y="42" fill="#171815" font-size="14" font-weight="700" letter-spacing="2.5" text-anchor="middle">SERVICE SUMMARY</text>
      <text x="151" y="58" fill="#171815" fill-opacity="0.42" font-family="monospace" font-size="6.5" text-anchor="middle">24.08.2026</text>
      <text x="151" y="94" fill="#171815" fill-opacity="0.38" font-size="5.5" font-weight="700" letter-spacing="1" text-anchor="middle">PREPARED FOR</text>
      <text x="151" y="109" fill="#171815" font-size="9" font-weight="700" text-anchor="middle">Recete Studio</text>
      <text x="24" y="143" fill="#171815" font-size="5.5" font-weight="700">SERVICE</text>
      <text x="230" y="143" fill="#171815" font-size="5.5" font-weight="700">QTY</text>
      <text x="278" y="143" fill="#171815" font-size="5.5" font-weight="700" text-anchor="end">TOTAL</text>
      <path d="M24 151H278" stroke="#171815" stroke-width="1.5"/>
      <text x="24" y="174" fill="#171815" font-size="6.5">Product strategy &amp; UX</text>
      <text x="235" y="174" fill="#171815" font-size="6.5" text-anchor="middle">1</text>
      <text x="278" y="174" fill="#171815" font-size="6.5" text-anchor="end">€1,800</text>
      <path d="M24 188H278" stroke="#171815" stroke-opacity="0.09"/>
      <text x="24" y="211" fill="#171815" font-size="6.5">Visual design system</text>
      <text x="235" y="211" fill="#171815" font-size="6.5" text-anchor="middle">1</text>
      <text x="278" y="211" fill="#171815" font-size="6.5" text-anchor="end">€2,400</text>
      <path d="M24 225H278" stroke="#171815" stroke-opacity="0.09"/>
      <text x="24" y="248" fill="#171815" font-size="6.5">Frontend development</text>
      <text x="235" y="248" fill="#171815" font-size="6.5" text-anchor="middle">1</text>
      <text x="278" y="248" fill="#171815" font-size="6.5" text-anchor="end">€3,200</text>
      <path d="M24 262H278" stroke="#171815" stroke-opacity="0.09"/>
      <text x="178" y="282" fill="#171815" fill-opacity="0.42" font-size="5.8">Subtotal</text>
      <text x="278" y="282" fill="#171815" fill-opacity="0.42" font-size="5.8" text-anchor="end">€7,400</text>
      <text x="178" y="297" fill="#171815" fill-opacity="0.42" font-size="5.8">VAT 20%</text>
      <text x="278" y="297" fill="#171815" fill-opacity="0.42" font-size="5.8" text-anchor="end">€1,480</text>
      <path d="M178 306H278" stroke="#171815" stroke-width="1.5"/>
      <text x="178" y="323" fill="#171815" font-size="7" font-weight="700">TOTAL</text>
      <text x="278" y="323" fill="#171815" font-size="8" font-weight="700" text-anchor="end">€8,880</text>
      <text x="151" y="350" fill="#171815" font-size="6.5" font-weight="700" text-anchor="middle">EMIR ULUÇAY</text>
      <text x="151" y="361" fill="#171815" fill-opacity="0.4" font-size="5" text-anchor="middle">hi@emirulucay.com · Izmir, Türkiye</text>
    </g>
  </g>
</svg>
